<svg width="340" height="100" viewBox="0 0 340 100" fill="none" xmlns="http://www.w3.org/2000/svg">
<path d="M290 0C276.422 0 274.72 0.086344 269.388 0.305828C264.066 0.548936 260.439 1.38177 257.259 2.61845C253.971 3.89591 251.172 5.61332 248.392 8.39332C245.613 11.1733 243.912 13.958 242.634 17.2462C241.398 20.4269 240.549 24.0695 240.307 29.3919C240.063 34.7253 240 36.4278 240 50.0078C240 63.5887 240.063 65.2904 240.307 70.6237C240.55 75.9461 241.398 79.5739 242.634 82.7546C243.912 86.0428 245.613 88.8275 248.392 91.6075C251.172 94.3875 253.971 96.1033 257.259 97.3815C260.439 98.6174 264.066 99.4667 269.388 99.7098C274.72 99.953 276.422 100 290 100C303.578 100 305.28 99.9217 310.612 99.7098C315.934 99.4667 319.576 98.6174 322.756 97.3815C326.044 96.1033 328.828 94.3875 331.608 91.6075C334.387 88.8275 336.088 86.0428 337.366 82.7546C338.602 79.5739 339.451 75.9461 339.693 70.6237C339.937 65.2904 340 63.5887 340 50.0078C340 36.4278 339.937 34.7253 339.693 29.3919C339.45 24.0695 338.602 20.4269 337.366 17.2462C336.088 13.958 334.387 11.1733 331.608 8.39332C328.828 5.61332 326.044 3.89591 322.756 2.61845C319.576 1.38177 315.934 0.548936 310.612 0.305828C305.28 0.0627233 303.578 0 290 0ZM290 9.00578C303.349 9.00578 304.927 9.08412 310.199 9.29593C315.073 9.51552 317.733 10.3421 319.494 11.0267C321.828 11.934 323.488 13.0146 325.237 14.7642C326.987 16.5138 328.067 18.1739 328.974 20.5077C329.658 22.2698 330.482 24.9298 330.704 29.8044C330.944 35.0774 330.995 36.656 330.995 50.0071C330.995 63.3589 330.94 64.9375 330.704 70.2097C330.482 75.0851 329.658 77.7294 328.974 79.4915C328.067 81.8253 326.987 83.4996 325.237 85.2499C323.488 86.9995 321.828 88.0801 319.494 88.9874C317.733 89.6697 315.073 90.4814 310.199 90.7033C304.928 90.9464 303.35 90.9934 290 90.9934C276.65 90.9934 275.072 90.9151 269.801 90.7033C264.927 90.4837 262.283 89.672 260.521 88.9874C258.187 88.0801 256.512 86.9995 254.763 85.2499C253.014 83.4996 251.933 81.8253 251.026 79.4915C250.342 77.7294 249.534 75.0851 249.311 70.2097C249.071 64.9375 249.02 63.3589 249.02 50.0071C249.02 36.656 249.075 35.0774 249.311 29.8044C249.534 24.9298 250.342 22.2698 251.026 20.5077C251.933 18.1739 253.014 16.5138 254.763 14.7642C256.512 13.0146 258.187 11.934 260.521 11.0267C262.283 10.3444 264.927 9.51864 269.801 9.29593C275.073 9.05285 276.651 9.00578 290 9.00578ZM316.692 17.3074C313.379 17.3074 310.689 19.9972 310.689 23.3112C310.689 26.6252 313.379 29.3151 316.692 29.3151C320.006 29.3151 322.695 26.6252 322.695 23.3112C322.695 19.9972 320.006 17.3074 316.692 17.3074ZM290 24.3221C275.821 24.3221 264.334 35.8271 264.334 50.0078C264.334 64.1894 275.821 75.6779 290 75.6779C304.179 75.6779 315.681 64.1894 315.681 50.0078C315.681 35.8271 304.179 24.3221 290 24.3221ZM290 33.3435C299.204 33.3435 306.661 40.8029 306.661 50.0078C306.661 59.2136 299.204 66.6721 290 66.6721C280.796 66.6721 273.339 59.2136 273.339 50.0078C273.339 40.8029 280.796 33.3435 290 33.3435Z" fill="#3F3F46"/>
<path d="M37.62 87.0711L39.1735 63.2341L81.7844 24.2384C83.6708 22.4915 81.396 21.6462 78.8993 23.1677L26.3015 56.9227L3.55352 49.5969C-1.32897 48.1881 -1.38446 44.7506 4.66318 42.2711L93.2693 7.55817C97.3196 5.69854 101.203 8.57251 99.6499 14.884L84.5585 87.0711C83.5043 92.1992 80.4528 93.4389 76.2361 91.0721L53.2662 73.8284L42.2251 84.7043C40.949 86.0004 39.8948 87.0711 37.62 87.0711Z" fill="#3F3F46"/>
</svg>
