<?xml version="1.0" standalone="no"?>
<!DOCTYPE svg PUBLIC "-//W3C//DTD SVG 20010904//EN"
 "http://www.w3.org/TR/2001/REC-SVG-20010904/DTD/svg10.dtd">
<svg version="1.0" xmlns="http://www.w3.org/2000/svg"
 width="1080.000000pt" height="1080.000000pt" viewBox="0 0 1080.000000 1080.000000"
 preserveAspectRatio="xMidYMid meet">

<g transform="translate(0.000000,1080.000000) scale(0.100000,-0.100000)"
fill="#000000" stroke="none">
<path d="M4994 7044 c-58 -21 -118 -75 -148 -136 l-26 -52 0 -392 c0 -216 -4
-395 -8 -398 -5 -3 -35 12 -68 32 -118 74 -226 114 -409 153 -92 19 -463 17
-545 -3 -237 -59 -342 -104 -499 -212 -372 -255 -571 -750 -491 -1221 26 -151
32 -178 70 -275 89 -227 209 -389 422 -567 72 -60 241 -150 353 -188 63 -22
201 -51 283 -60 34 -4 62 -11 62 -16 0 -5 32 -9 70 -9 39 0 70 4 70 9 0 5 30
12 68 16 355 32 709 246 915 553 78 116 155 283 179 387 5 22 16 72 25 110 14
61 17 195 20 1064 4 1128 9 1056 -76 1140 -74 74 -173 98 -267 65z m-784
-1308 c151 -32 274 -100 385 -211 88 -88 162 -208 187 -305 50 -195 50 -280 1
-450 -54 -190 -214 -375 -398 -462 -184 -86 -449 -93 -615 -17 -204 94 -357
258 -425 454 -44 128 -56 269 -31 385 64 303 272 523 566 599 91 23 239 27
330 7z"/>
<path d="M1230 6269 c-261 -36 -465 -122 -657 -277 -309 -247 -483 -607 -483
-996 0 -108 20 -266 42 -336 80 -253 174 -415 332 -574 188 -188 439 -319 689
-358 42 -7 77 -16 77 -20 0 -4 59 -8 130 -8 72 0 130 4 130 9 0 5 26 12 58 15
315 38 642 228 843 491 332 434 349 1036 44 1495 -63 94 -202 239 -303 315
-249 187 -609 284 -902 244z m230 -529 c166 -21 299 -83 421 -197 219 -207
298 -516 202 -793 -32 -91 -50 -125 -114 -211 -138 -186 -365 -299 -605 -299
-198 0 -385 80 -528 228 -154 158 -224 345 -213 569 9 186 79 347 208 480 117
121 272 198 444 222 85 12 91 12 185 1z"/>
<path d="M6595 6264 c-112 -16 -304 -73 -399 -119 -197 -94 -407 -279 -518
-455 -216 -342 -266 -737 -140 -1110 20 -61 99 -226 131 -275 207 -320 565
-545 924 -581 31 -3 57 -10 57 -15 0 -5 38 -9 85 -9 47 0 85 4 85 9 0 5 30 12
68 16 234 24 469 120 665 274 164 129 328 357 392 546 9 28 21 59 25 70 21 51
59 285 59 368 1 70 -21 239 -40 317 -54 218 -161 411 -318 573 -195 203 -370
299 -676 373 -58 14 -339 27 -400 18z m305 -528 c138 -29 263 -94 363 -191
110 -106 157 -178 201 -307 40 -118 52 -223 37 -331 -26 -191 -97 -332 -232
-464 -53 -51 -210 -153 -236 -153 -7 0 -21 -4 -31 -10 -73 -40 -322 -54 -440
-24 -122 31 -278 124 -365 218 -48 52 -133 188 -156 249 -48 131 -65 308 -40
414 73 302 280 517 569 592 91 23 238 27 330 7z"/>
<path d="M9285 6264 c-11 -2 -45 -9 -75 -15 -204 -42 -317 -88 -482 -197 -177
-116 -351 -315 -437 -497 -18 -39 -36 -77 -40 -85 -11 -23 -57 -177 -72 -245
-19 -80 -19 -401 -1 -470 7 -27 18 -68 24 -90 35 -138 127 -328 215 -443 61
-80 169 -188 248 -249 176 -135 403 -226 618 -248 31 -4 57 -11 57 -16 0 -5
38 -9 85 -9 47 0 85 4 85 9 0 5 30 12 68 16 186 19 356 77 532 183 41 25 77
48 80 51 3 3 21 18 40 33 92 69 220 209 286 313 98 155 171 359 189 533 4 34
11 62 16 62 5 0 9 41 9 90 0 50 -4 90 -9 90 -5 0 -12 26 -16 58 -22 207 -102
420 -221 589 -71 99 -238 264 -329 325 -85 56 -188 108 -275 138 -64 23 -79
27 -195 56 -58 14 -357 28 -400 18z m329 -534 c315 -79 548 -348 574 -662 19
-233 -49 -433 -205 -599 -62 -65 -170 -142 -238 -170 -16 -6 -39 -15 -50 -20
-101 -41 -325 -52 -444 -23 -233 58 -454 264 -531 494 -39 116 -52 290 -29
387 18 74 60 184 86 225 12 21 23 42 23 48 0 5 4 10 9 10 5 0 12 8 16 18 12
36 148 164 210 198 11 6 40 22 65 35 40 22 90 39 200 68 65 17 229 12 314 -9z"/>
</g>
</svg>
