<?xml version="1.0" standalone="no"?>
<!DOCTYPE svg PUBLIC "-//W3C//DTD SVG 20010904//EN"
 "http://www.w3.org/TR/2001/REC-SVG-20010904/DTD/svg10.dtd">
<svg version="1.0" xmlns="http://www.w3.org/2000/svg"
 width="1080.000000pt" height="1080.000000pt" viewBox="0 0 1080.000000 1080.000000"
 preserveAspectRatio="xMidYMid meet">

<g transform="translate(0.000000,1080.000000) scale(0.100000,-0.100000)"
fill="#000000" stroke="none">
<path d="M5356 6774 c-3 -8 -11 -56 -16 -106 -6 -50 -13 -95 -16 -100 -3 -5 0
-15 6 -23 10 -12 39 -15 130 -15 64 0 131 -5 148 -11 41 -14 62 -58 51 -112
-4 -23 -14 -91 -23 -152 -39 -271 -58 -404 -66 -460 -5 -33 -16 -109 -25 -170
-8 -60 -20 -141 -25 -180 -5 -38 -17 -113 -25 -165 -9 -52 -19 -126 -24 -165
-5 -38 -17 -122 -26 -185 -9 -63 -20 -142 -25 -175 -5 -33 -16 -107 -25 -165
-38 -250 -44 -319 -34 -377 11 -58 67 -159 94 -169 8 -4 15 -12 15 -20 0 -12
46 -14 274 -14 l274 0 12 102 c17 133 24 128 -186 128 -89 0 -170 3 -179 6 -8
4 -22 19 -30 34 -13 25 -12 44 6 161 11 74 24 166 29 204 5 39 16 120 25 180
8 61 19 142 25 180 5 39 18 133 30 210 11 77 27 192 35 255 9 63 20 142 25
175 15 104 30 204 56 390 14 99 30 207 35 240 5 33 12 112 15 175 5 100 3 121
-14 160 -26 61 -66 106 -129 147 l-52 33 -179 0 c-155 0 -181 -2 -186 -16z"/>
<path d="M6327 6783 c-9 -16 -29 -180 -26 -213 l4 -35 137 -5 c127 -5 138 -7
162 -29 31 -29 32 -57 12 -181 -16 -99 -29 -187 -51 -355 -9 -66 -20 -147 -25
-180 -16 -106 -30 -206 -56 -390 -14 -99 -29 -207 -34 -240 -9 -65 -20 -146
-44 -325 -9 -63 -23 -160 -31 -215 -61 -391 -59 -433 27 -550 l41 -55 278 0
277 0 7 73 c3 39 8 84 11 98 10 54 -9 59 -205 59 -231 0 -231 1 -205 178 8 59
19 136 24 172 5 36 16 117 25 180 9 63 20 144 25 180 4 36 17 130 29 210 11
80 28 195 36 255 9 61 20 137 25 170 10 67 22 156 45 320 8 61 24 173 36 250
54 360 53 413 -14 512 -17 26 -57 65 -87 85 l-55 37 -182 1 c-100 0 -184 -3
-186 -7z"/>
<path d="M10402 6692 c-62 -23 -126 -80 -153 -137 -26 -55 -26 -168 0 -226 23
-51 81 -109 133 -132 50 -24 170 -22 223 2 58 26 122 103 141 169 60 206 -142
396 -344 324z m154 -45 c94 -41 135 -102 136 -206 0 -55 -4 -77 -21 -105 -72
-116 -215 -139 -320 -51 -33 28 -71 113 -71 161 0 43 38 130 69 158 55 50 148
69 207 43z"/>
<path d="M10411 6576 c-8 -9 -11 -54 -9 -137 3 -116 4 -124 23 -124 16 0 21 8
25 45 4 36 9 46 26 48 15 2 28 -10 52 -48 46 -74 93 -66 51 10 -22 38 -22 40
-5 72 24 45 18 96 -14 119 -33 25 -133 35 -149 15z m124 -81 c0 -27 -4 -30
-34 -33 -41 -4 -56 9 -47 43 6 23 11 26 44 23 34 -3 37 -6 37 -33z"/>
<path d="M2645 6266 c-13 -9 -21 -33 -26 -77 -5 -35 -12 -89 -16 -119 l-8 -55
-880 -5 c-875 -5 -880 -5 -933 -27 -120 -49 -223 -161 -255 -276 -8 -29 -23
-114 -33 -191 -14 -113 -16 -148 -6 -193 15 -71 63 -146 117 -183 83 -57 113
-60 626 -60 549 0 516 7 511 -102 -4 -92 -31 -230 -50 -252 -41 -46 -34 -46
-867 -46 l-785 0 -9 -22 c-19 -50 -31 -122 -31 -183 l0 -66 837 3 838 3 66 31
c119 57 209 170 237 299 19 92 35 250 30 315 -7 110 -59 188 -161 242 -42 23
-47 23 -545 28 l-504 5 -25 29 c-23 27 -24 35 -18 92 16 149 32 215 61 245
l28 29 853 0 853 0 0 -32 c0 -18 -5 -60 -10 -93 -6 -33 -15 -94 -20 -135 -6
-41 -17 -122 -25 -180 -8 -58 -19 -139 -25 -180 -5 -41 -12 -89 -16 -107 -7
-37 11 -122 37 -174 24 -49 99 -113 157 -135 41 -16 92 -18 390 -22 342 -3
343 -4 351 -25 44 -113 87 -168 165 -210 41 -22 42 -22 696 -25 l655 -3 17 22
c11 13 18 38 18 63 0 24 5 68 11 99 9 44 9 60 -1 72 -11 13 -91 15 -632 15
l-619 0 -24 25 c-28 27 -31 56 -15 150 6 33 15 93 20 134 6 41 16 78 22 83 7
4 302 8 654 8 501 0 644 3 652 13 10 13 23 82 47 272 9 66 21 149 27 185 17
96 16 241 -2 276 -30 61 -81 113 -138 141 l-57 28 -530 0 -530 0 -70 -34 c-82
-41 -162 -116 -198 -188 -34 -67 -48 -141 -108 -578 -23 -169 -36 -233 -47
-242 -20 -16 -586 -18 -627 -3 -14 5 -32 24 -39 40 -13 31 -7 99 23 285 6 33
22 146 37 250 14 105 31 196 36 203 7 8 41 12 103 12 62 0 96 4 103 13 13 16
37 219 29 240 -5 14 -22 17 -101 17 -52 0 -97 4 -100 8 -3 5 2 60 10 123 14
106 14 114 -2 126 -25 18 -204 18 -229 -1z m2170 -556 c25 -23 27 -30 21 -80
-10 -97 -34 -254 -41 -272 -7 -17 -41 -18 -525 -18 -300 0 -521 4 -524 9 -9
14 33 292 49 329 28 62 30 62 537 59 l456 -2 27 -25z"/>
<path d="M7550 5985 c-6 -8 -16 -47 -21 -87 -5 -40 -11 -85 -15 -100 -3 -15
-3 -37 1 -48 6 -20 13 -20 494 -20 486 0 488 0 516 -22 27 -21 28 -23 22 -97
-7 -84 -25 -212 -36 -251 l-6 -25 -530 -5 -530 -5 -68 -33 c-87 -43 -166 -121
-205 -204 -43 -89 -80 -352 -64 -442 20 -107 95 -192 200 -228 29 -10 255 -13
983 -16 817 -2 948 0 958 12 12 15 17 41 45 256 9 63 22 160 31 215 9 55 20
132 25 170 5 39 16 124 25 190 9 66 20 152 25 190 25 189 36 235 65 265 l29
30 492 0 493 0 15 22 c9 12 16 37 16 55 0 18 5 64 12 103 11 61 10 73 -2 80
-22 14 -976 13 -1041 -1 -68 -15 -139 -54 -195 -109 -79 -77 -116 -158 -134
-295 -8 -66 -30 -228 -50 -375 -16 -116 -40 -293 -55 -404 -8 -60 -18 -113
-22 -117 -11 -11 -323 -13 -334 -2 -5 5 -3 52 6 114 8 57 17 120 20 139 3 19
12 87 20 150 8 63 20 142 25 175 47 298 62 439 51 493 -21 108 -102 197 -204
227 -74 22 -1038 22 -1057 0z m893 -917 c15 -12 15 -21 1 -113 -8 -55 -19
-136 -25 -180 -5 -44 -14 -84 -18 -88 -5 -4 -230 -8 -502 -7 -490 1 -493 1
-516 22 -15 14 -23 33 -23 55 0 47 28 223 41 255 12 30 43 54 80 61 13 2 231
5 485 6 354 1 464 -2 477 -11z"/>
</g>
</svg>
